<svg width="782" height="520" viewBox="0 0 782 520" fill="none" xmlns="http://www.w3.org/2000/svg">
<path opacity="0.3" d="M191.983 520H87.23L165.123 456.585H243.911L191.983 520Z" fill="black"/>
<path d="M178.425 213.56H70.4746V287.608H178.425V213.56Z" fill="#6A80F2"/>
<path d="M190.448 517.822H85.5674L163.588 454.536H242.377L190.448 517.822Z" fill="#F7FFBF"/>
<path d="M199.785 477.852C199.785 477.852 187.762 493.609 179.448 503.858C171.134 514.107 156.553 512.313 150.414 512.313C137.88 512.313 140.566 500.655 145.937 490.278C152.716 477.083 167.169 469.268 175.099 465.553C193.262 457.098 208.226 467.475 199.785 477.852Z" fill="#3C6D73"/>
<path d="M152.972 510.52C152.972 510.52 154.507 496.171 162.437 487.332" stroke="#262F57" stroke-width="0.8044" stroke-miterlimit="10"/>
<path opacity="0.3" d="M179.704 497.324C179.704 497.324 190.704 492.2 193.518 479.773C193.518 479.773 236.877 459.532 250.051 450.18C263.225 440.828 277.806 425.455 281.643 419.818H244.039L179.576 469.653L161.158 494.762L160.519 500.655C160.519 500.655 174.204 485.666 178.937 489.766C181.367 491.688 179.704 497.324 179.704 497.324Z" fill="black"/>
<path d="M428.348 148.864C459.288 148.864 484.369 123.742 484.369 92.7519C484.369 61.7619 459.288 36.6396 428.348 36.6396C397.408 36.6396 372.326 61.7619 372.326 92.7519C372.326 123.742 397.408 148.864 428.348 148.864Z" fill="#DCE4BB"/>
<path d="M710.886 419.818H599.738V343.336H634.656C676.736 343.464 710.886 377.669 710.886 419.818Z" fill="#DCE4BB"/>
<path d="M512.508 407.391V419.818H558.809C558.809 399.704 575.053 383.434 595.134 383.434C615.215 383.434 631.458 399.704 631.458 419.818H677.887V407.391H653.841C652.306 400.089 649.365 393.171 645.4 387.15L662.411 370.111L644.888 352.56L627.877 369.598C621.738 365.627 614.959 362.68 607.668 361.143V337.058H582.855V361.143C575.565 362.68 568.658 365.627 562.646 369.598L545.635 352.56L528.112 370.111L545.124 387.15C541.159 393.299 538.217 400.089 536.682 407.391H512.508Z" fill="#A7B964"/>
<path d="M640.539 124.139H533.101V177.689H640.539V124.139Z" fill="#DCE4BB"/>
<path d="M390.233 156.038H241.609V280.434H390.233V156.038Z" fill="#DCE4BB"/>
<path d="M160.007 419.818H199.145C191.983 410.85 187.634 399.32 187.634 386.893C187.634 357.812 211.168 334.112 240.33 334.112C269.364 334.112 293.026 357.684 293.026 386.893C293.026 399.32 288.678 410.722 281.515 419.818H320.653C322.572 415.078 324.107 410.081 325.258 404.957H360.048V368.958H325.258C322.956 358.325 318.863 348.332 313.107 339.621L337.792 314.895L312.34 289.401L287.654 314.127C278.829 308.362 268.98 304.134 258.365 301.956V267.11H222.424V301.956C211.808 304.262 201.831 308.362 193.134 314.127L168.449 289.401L142.996 314.895L167.681 339.621C161.926 348.46 157.705 358.325 155.53 368.958H120.613V404.957H155.402C156.554 410.081 158.088 415.078 160.007 419.818Z" fill="#A7B964"/>
<path d="M0 419.818H782" stroke="#262F57" stroke-width="1.3436" stroke-miterlimit="10"/>
<g opacity="0.3">
<path d="M631.458 500.399H544.868L500.357 448.771H566.355L631.458 500.399Z" fill="black"/>
</g>
<path d="M633.377 496.684H546.786L502.148 445.184H568.274L633.377 496.684Z" fill="#FFC700"/>
<path d="M523.38 451.973H561.367" stroke="#D99400" stroke-width="0.9707" stroke-miterlimit="10" stroke-linecap="round" stroke-linejoin="round"/>
<path d="M530.159 459.276H569.937" stroke="#D99400" stroke-width="0.9707" stroke-miterlimit="10" stroke-linecap="round" stroke-linejoin="round"/>
<path d="M537.577 467.09H579.274" stroke="#D99400" stroke-width="0.9707" stroke-miterlimit="10" stroke-linecap="round" stroke-linejoin="round"/>
<path d="M545.763 475.802H589.633" stroke="#D99400" stroke-width="0.9707" stroke-miterlimit="10" stroke-linecap="round" stroke-linejoin="round"/>
<path d="M554.844 485.41H601.017" stroke="#D99400" stroke-width="0.9707" stroke-miterlimit="10" stroke-linecap="round" stroke-linejoin="round"/>
<path d="M147.472 450.18C161.529 450.18 172.925 447.197 172.925 443.518C172.925 439.839 161.529 436.856 147.472 436.856C133.415 436.856 122.02 439.839 122.02 443.518C122.02 447.197 133.415 450.18 147.472 450.18Z" fill="#6A80F2"/>
<path d="M170.495 379.591H124.45L128.415 442.365C128.415 442.365 128.415 442.365 128.415 442.493C128.415 444.799 136.984 446.593 147.472 446.593C157.96 446.593 166.53 444.799 166.53 442.493C166.53 442.493 166.53 442.493 166.53 442.365L170.495 379.591Z" fill="white"/>
<path d="M147.472 446.593C157.96 446.593 166.53 444.799 166.53 442.493C166.53 442.493 166.53 442.493 166.53 442.365L169.727 391.633C161.925 401.37 146.961 416.359 127.136 419.946L128.543 442.493C128.543 442.493 128.543 442.493 128.543 442.621C128.415 444.671 136.984 446.593 147.472 446.593Z" fill="#FFC700"/>
<path d="M170.495 379.591C170.495 382.281 160.263 384.587 147.472 384.587C134.81 384.587 124.45 382.409 124.45 379.591C124.45 376.901 134.682 374.595 147.472 374.595C160.135 374.723 170.495 376.901 170.495 379.591Z" fill="#262F57"/>
<path d="M178.425 350.382L160.135 355.378C159.751 355.506 159.367 355.891 159.24 356.275L151.438 383.434C152.333 383.434 153.228 383.306 154.123 383.306L161.542 357.684L179.065 352.944L178.425 350.382Z" fill="white"/>
<path d="M174.588 208.692H66.6377V282.74H174.588V208.692Z" fill="#FFC700"/>
<path d="M170.239 213.56L120.613 265.06L70.9863 213.56" stroke="#4862E0" stroke-width="1.052" stroke-miterlimit="10"/>
<path d="M102.195 245.844L70.9863 278.128" stroke="#4862E0" stroke-width="1.052" stroke-miterlimit="10"/>
<path d="M170.239 278.128L139.031 245.844" stroke="#4862E0" stroke-width="1.052" stroke-miterlimit="10"/>
<path d="M186.483 218.941H281.131" stroke="white" stroke-width="2" stroke-miterlimit="10"/>
<path d="M186.483 236.876H271.794" stroke="white" stroke-width="2" stroke-miterlimit="10"/>
<path d="M186.483 254.812H261.434" stroke="white" stroke-width="2" stroke-miterlimit="10"/>
<path d="M186.483 272.619H249.155" stroke="white" stroke-width="2" stroke-miterlimit="10"/>
<path d="M214.366 306.568H188.018C186.227 304.262 183.413 302.853 180.344 302.853C177.274 302.853 174.46 304.262 172.669 306.568H74.9514C71.6259 306.568 68.9399 309.258 68.9399 312.589C68.9399 315.92 71.6259 318.611 74.9514 318.611H172.797C174.588 320.916 177.402 322.326 180.472 322.326C183.541 322.326 186.355 320.916 188.146 318.611H214.494C217.819 318.611 220.505 315.92 220.505 312.589C220.505 309.258 217.691 306.568 214.366 306.568Z" fill="#6A80F2"/>
<path d="M145.809 197.29H81.6021V118.63H124.705L145.809 140.921V197.29Z" fill="#6A80F2"/>
<path d="M141.845 193.319H77.7651V114.659H120.869L141.845 136.95V193.319Z" fill="white"/>
<path d="M120.869 114.659V136.822H141.845L120.869 114.659Z" fill="#D9CA68"/>
<path d="M85.1836 130.032H104.113" stroke="#B38900" stroke-width="0.7828" stroke-miterlimit="10"/>
<path d="M85.1836 135.669H104.113" stroke="#B38900" stroke-width="0.7828" stroke-miterlimit="10"/>
<path d="M85.1836 181.276H104.113" stroke="#B38900" stroke-width="0.7828" stroke-miterlimit="10"/>
<path d="M85.1836 144.252H134.298" stroke="#B38900" stroke-width="0.7828" stroke-miterlimit="10"/>
<path d="M85.1836 151.555H134.298" stroke="#B38900" stroke-width="0.7828" stroke-miterlimit="10"/>
<path d="M85.1836 158.857H134.298" stroke="#B38900" stroke-width="0.7828" stroke-miterlimit="10"/>
<path d="M85.1836 166.287H134.298" stroke="#B38900" stroke-width="0.7828" stroke-miterlimit="10"/>
<path d="M85.1836 173.59H134.298" stroke="#B38900" stroke-width="0.7828" stroke-miterlimit="10"/>
<path d="M302.235 19.4728H150.03V118.118H302.235V19.4728Z" fill="#6A80F2"/>
<path d="M298.654 16.0138H146.449V114.659H298.654V16.0138Z" fill="white"/>
<path d="M146.449 0.768661L156.298 9.8645" stroke="#4862E0" stroke-width="1.052" stroke-miterlimit="10" stroke-linecap="round" stroke-linejoin="round"/>
<path d="M156.298 0.768661L146.449 9.8645" stroke="#4862E0" stroke-width="1.052" stroke-miterlimit="10" stroke-linecap="round" stroke-linejoin="round"/>
<path d="M172.542 0.768661H163.46V9.99261H172.542V0.768661Z" stroke="#4862E0" stroke-width="1.052" stroke-miterlimit="10" stroke-linecap="round" stroke-linejoin="round"/>
<path d="M189.041 5.38063C189.041 7.94284 186.995 9.99261 184.437 9.99261C181.878 9.99261 179.832 7.94284 179.832 5.38063C179.832 2.81843 181.878 0.768661 184.437 0.768661C186.995 0.768661 189.041 2.69032 189.041 5.38063Z" stroke="#4862E0" stroke-width="1.052" stroke-miterlimit="10"/>
<path d="M197.227 5.38063H298.654" stroke="#4862E0" stroke-width="1.052" stroke-miterlimit="10"/>
<path d="M278.445 39.9704H260.027V92.88H278.445V39.9704Z" fill="#F24693"/>
<path d="M245.958 66.3612H227.54V92.7519H245.958V66.3612Z" fill="#4862E0"/>
<path d="M213.342 50.9879H194.924V92.7519H213.342V50.9879Z" fill="#262F57"/>
<path d="M180.855 77.5068H162.437V92.7519H180.855V77.5068Z" fill="#A7B964"/>
<path d="M156.81 92.7519H288.294V31.0027" stroke="#4862E0" stroke-width="1.052" stroke-miterlimit="10"/>
<path d="M162.437 103.001H180.855" stroke="#9EAEFF" stroke-miterlimit="10"/>
<path d="M194.924 103.001H213.342" stroke="#9EAEFF" stroke-miterlimit="10"/>
<path d="M227.54 103.001H245.958" stroke="#9EAEFF" stroke-miterlimit="10"/>
<path d="M260.027 103.001H278.445" stroke="#9EAEFF" stroke-miterlimit="10"/>
<path d="M178.041 174.486C178.041 178.842 174.588 182.301 170.239 182.301C165.89 182.301 162.437 178.842 162.437 174.486C162.437 170.131 165.89 166.672 170.239 166.672C174.588 166.672 178.041 170.131 178.041 174.486Z" stroke="#6A80F2" stroke-width="2" stroke-miterlimit="10"/>
<path d="M433.975 57.6497C433.975 62.0054 430.522 65.4644 426.173 65.4644C421.824 65.4644 418.371 62.0054 418.371 57.6497C418.371 53.2939 421.824 49.8349 426.173 49.8349C430.522 49.8349 433.975 53.2939 433.975 57.6497Z" stroke="#6A80F2" stroke-width="2" stroke-miterlimit="10"/>
<path d="M718.688 364.346C718.688 368.702 715.234 372.161 710.886 372.161C706.537 372.161 703.083 368.702 703.083 364.346C703.083 359.99 706.537 356.531 710.886 356.531C715.234 356.531 718.688 359.99 718.688 364.346Z" stroke="#6A80F2" stroke-width="2" stroke-miterlimit="10"/>
<path d="M163.332 149.889C168.32 149.889 168.32 152.451 173.436 152.451C178.553 152.451 178.425 149.889 183.541 149.889C188.529 149.889 188.529 152.451 193.645 152.451C198.633 152.451 198.633 149.889 203.749 149.889C208.738 149.889 208.738 152.451 213.854 152.451C218.842 152.451 218.842 149.889 223.958 149.889C228.946 149.889 228.946 152.451 234.062 152.451" stroke="#6A80F2" stroke-width="2" stroke-miterlimit="10"/>
<path d="M658.957 337.315C663.945 337.315 663.945 339.877 669.061 339.877C674.05 339.877 674.05 337.315 679.166 337.315C684.154 337.315 684.154 339.877 689.27 339.877C694.258 339.877 694.258 337.315 699.374 337.315C704.363 337.315 704.363 339.877 709.479 339.877C714.467 339.877 714.467 337.315 719.583 337.315C724.571 337.315 724.571 339.877 729.687 339.877" stroke="#6A80F2" stroke-width="2" stroke-miterlimit="10"/>
<path d="M592.447 97.8763C597.435 97.8763 597.435 100.439 602.552 100.439C607.668 100.439 607.54 97.8763 612.656 97.8763C617.644 97.8763 617.644 100.439 622.76 100.439C627.749 100.439 627.749 97.8763 632.865 97.8763C637.853 97.8763 637.853 100.439 642.969 100.439C647.957 100.439 647.957 97.8763 653.073 97.8763C658.062 97.8763 658.062 100.439 663.178 100.439" stroke="#6A80F2" stroke-width="2" stroke-miterlimit="10"/>
<path d="M100.276 332.19L70.2188 370.751" stroke="#6A80F2" stroke-width="2" stroke-miterlimit="10"/>
<path d="M77.3814 343.592C79.7831 343.592 81.7301 341.642 81.7301 339.236C81.7301 336.831 79.7831 334.881 77.3814 334.881C74.9797 334.881 73.0327 336.831 73.0327 339.236C73.0327 341.642 74.9797 343.592 77.3814 343.592Z" stroke="#6A80F2" stroke-width="2" stroke-miterlimit="10"/>
<path d="M97.4621 363.705C97.4621 366.139 95.5435 368.061 93.1134 368.061C90.6832 368.061 88.7646 366.139 88.7646 363.705C88.7646 361.271 90.6832 359.35 93.1134 359.35C95.5435 359.35 97.4621 361.399 97.4621 363.705Z" stroke="#6A80F2" stroke-width="2" stroke-miterlimit="10"/>
<path d="M327.56 66.2331V81.7344" stroke="#6A80F2" stroke-width="2" stroke-miterlimit="10"/>
<path d="M335.234 73.9197H319.758" stroke="#6A80F2" stroke-width="2" stroke-miterlimit="10"/>
<path d="M222.552 184.351V199.98" stroke="#6A80F2" stroke-width="2" stroke-miterlimit="10"/>
<path d="M230.354 192.166H214.75" stroke="#6A80F2" stroke-width="2" stroke-miterlimit="10"/>
<path d="M549.984 244.563V260.192" stroke="#6A80F2" stroke-width="2" stroke-miterlimit="10"/>
<path d="M557.786 252.377H542.182" stroke="#6A80F2" stroke-width="2" stroke-miterlimit="10"/>
<path d="M710.886 389.584V405.213" stroke="#6A80F2" stroke-width="2" stroke-miterlimit="10"/>
<path d="M718.688 397.398H703.083" stroke="#6A80F2" stroke-width="2" stroke-miterlimit="10"/>
<path d="M724.571 146.302H619.563V316.305H724.571V146.302Z" fill="#6A80F2"/>
<path d="M729.56 126.061L720.095 134.772" stroke="#4862E0" stroke-miterlimit="10" stroke-linecap="round" stroke-linejoin="round"/>
<path d="M720.095 126.061L729.56 134.772" stroke="#4862E0" stroke-miterlimit="10" stroke-linecap="round" stroke-linejoin="round"/>
<path d="M704.563 134.754H713.26V126.042H704.563V134.754Z" stroke="#4862E0" stroke-miterlimit="10" stroke-linecap="round" stroke-linejoin="round"/>
<path d="M688.887 130.416C688.887 132.85 690.805 134.772 693.235 134.772C695.666 134.772 697.584 132.85 697.584 130.416C697.584 127.982 695.666 126.06 693.235 126.06C690.933 125.932 688.887 127.982 688.887 130.416Z" stroke="#4862E0" stroke-miterlimit="10" stroke-linecap="round" stroke-linejoin="round"/>
<path d="M729.432 141.69H624.423V311.693H729.432V141.69Z" fill="white"/>
<path d="M684.282 130.416H624.423" stroke="#4862E0" stroke-miterlimit="10" stroke-linecap="round" stroke-linejoin="round"/>
<path d="M676.991 212.663C691.896 212.663 703.979 200.561 703.979 185.632C703.979 170.703 691.896 158.601 676.991 158.601C662.087 158.601 650.004 170.703 650.004 185.632C650.004 200.561 662.087 212.663 676.991 212.663Z" fill="#DCE4BB"/>
<path d="M678.271 197.802V200.877H676.736V197.931C673.027 197.802 670.213 196.009 669.189 193.19L670.724 192.294C671.492 194.6 673.538 196.137 676.736 196.265V186.272C673.282 185.119 670.341 183.838 670.341 179.739C670.341 176.28 673.154 173.846 676.736 173.59V170.387H678.271V173.461C680.957 173.718 683.259 175.127 684.282 177.689L682.747 178.586C681.98 176.664 680.445 175.511 678.271 175.255V184.863C681.724 186.016 684.794 187.425 684.794 191.397C684.794 194.856 682.108 197.418 678.271 197.802ZM676.736 184.223V175.127C673.922 175.383 672.131 177.177 672.131 179.483C672.003 182.173 674.05 183.198 676.736 184.223ZM683.003 191.397C683.003 188.707 681.084 187.554 678.271 186.657V196.137C681.34 195.625 683.003 193.831 683.003 191.397Z" fill="white"/>
<path d="M676.991 245.459V225.859" stroke="#D99400" stroke-miterlimit="10" stroke-linecap="round" stroke-linejoin="round"/>
<path d="M683.259 235.083L676.991 225.218L670.724 235.083" stroke="#D99400" stroke-miterlimit="10" stroke-linecap="round" stroke-linejoin="round"/>
<path d="M707.816 256.989H646.167V300.547H707.816V256.989Z" fill="#FFC700"/>
<path d="M650.132 264.164H669.701L676.992 277.871H704.363" stroke="#D99400" stroke-width="0.9707" stroke-miterlimit="10" stroke-linecap="round" stroke-linejoin="round"/>
<path d="M720.095 158.601V300.675" stroke="#9EAEFF" stroke-miterlimit="10"/>
<path d="M720.095 210.87C718.56 210.87 717.409 209.717 717.409 208.179V192.806C717.409 191.269 718.56 190.116 720.095 190.116C721.63 190.116 722.781 191.269 722.781 192.806V208.179C722.781 209.589 721.63 210.87 720.095 210.87Z" fill="#4862E0"/>
<path d="M376.93 70.2045C376.93 70.2045 397.523 62.2616 410.953 75.9695C417.604 82.7593 421.952 92.4957 423.359 107.613C424.766 122.73 427.836 127.854 434.103 137.847C440.37 147.967 439.859 164.109 436.277 171.54H326.153C326.153 171.54 337.792 152.836 338.048 135.797C338.176 118.758 338.559 106.204 340.222 95.186C342.269 81.7344 351.222 66.7455 376.93 70.2045Z" fill="#262F57"/>
<path d="M360.815 120.936C360.815 120.936 357.617 114.787 353.78 115.556C349.943 116.324 349.431 124.908 351.734 128.495C353.908 131.826 359.024 133.491 362.094 129.648L360.815 120.936Z" fill="#FF9191"/>
<path d="M353.141 125.292C352.629 122.089 352.757 118.63 354.547 118.502C356.338 118.374 359.791 123.883 359.791 123.883" stroke="#873636" stroke-width="0.7828" stroke-miterlimit="10"/>
<path d="M367.338 145.405C367.338 145.405 369.256 167.696 366.186 174.614C363.117 181.404 356.082 189.603 356.082 189.603L382.942 214.072L412.743 185.376C412.743 185.376 401.488 178.97 399.697 171.155C397.906 163.341 398.418 143.612 398.418 143.612L367.338 145.405Z" fill="#FFA8A7"/>
<path d="M398.418 143.74L367.338 145.405C367.338 145.405 367.722 149.761 367.849 155.27C369.384 157.448 373.094 160.65 381.151 162.188C392.407 164.494 395.477 169.618 399.569 170.387C398.035 162.188 398.418 143.74 398.418 143.74Z" fill="#FF9191"/>
<path d="M425.15 148.608C425.15 148.608 429.627 157.448 425.789 171.668" stroke="#4862E0" stroke-width="0.7828" stroke-miterlimit="10"/>
<path d="M414.022 148.608C414.022 148.608 418.499 157.448 414.662 171.668" stroke="#4862E0" stroke-width="0.7828" stroke-miterlimit="10"/>
<path d="M403.022 148.608C403.022 148.608 407.499 157.448 403.662 171.668" stroke="#4862E0" stroke-width="0.7828" stroke-miterlimit="10"/>
<path d="M344.827 148.608C344.827 148.608 342.013 164.109 335.618 171.668" stroke="#4862E0" stroke-width="0.7828" stroke-miterlimit="10"/>
<path d="M353.524 148.608C353.524 148.608 352.245 164.109 345.85 171.668" stroke="#4862E0" stroke-width="0.7828" stroke-miterlimit="10"/>
<path d="M362.861 148.608C362.861 148.608 362.349 164.109 355.954 171.668" stroke="#4862E0" stroke-width="0.7828" stroke-miterlimit="10"/>
<path d="M371.175 94.9298C371.175 94.9298 367.21 115.299 358.256 117.349C358.256 117.349 359.663 127.726 360.942 136.95C362.477 148.096 374.756 153.989 383.197 153.989C394.069 153.989 400.72 144.893 402.383 140.537C403.15 138.487 404.046 135.028 404.685 131.954C405.708 127.085 405.197 122.089 403.15 117.605C400.209 110.944 394.581 101.463 385.5 95.186C379.105 90.8303 376.802 95.8266 376.802 95.8266C376.802 95.8266 372.582 88.3962 371.175 94.9298Z" fill="#FFA8A7"/>
<path d="M368.105 114.146C370.791 111.84 376.035 111.84 378.465 114.146" stroke="#873636" stroke-width="0.8509" stroke-miterlimit="10"/>
<path d="M396.116 114.146C393.43 111.84 388.186 111.84 385.756 114.146" stroke="#873636" stroke-width="0.8509" stroke-miterlimit="10"/>
<path d="M381.279 117.862C381.279 117.862 381.279 121.192 379.361 123.114C377.442 125.036 378.465 125.933 379.872 125.933C381.279 125.933 383.582 125.933 383.582 125.933" stroke="#873636" stroke-width="0.8509" stroke-miterlimit="10"/>
<path d="M372.198 131.057L392.151 130.032C392.151 130.032 389.72 141.69 382.174 141.69C374.628 141.69 372.198 131.057 372.198 131.057Z" fill="#E6EAFF"/>
<path d="M380 146.173C380 146.173 383.581 145.022 386.139 146.173" stroke="#FF9191" stroke-width="0.8509" stroke-miterlimit="10"/>
<path d="M385.756 106.972C385.756 106.972 392.407 106.075 398.162 108.381" stroke="#262F57" stroke-width="2" stroke-miterlimit="10"/>
<path d="M378.593 106.972C378.593 106.972 371.942 106.075 366.187 108.381" stroke="#262F57" stroke-width="2" stroke-miterlimit="10"/>
<path d="M309.142 329.756C309.142 329.756 284.712 391.505 276.782 408.672C268.724 425.839 251.202 441.084 235.981 451.973C225.237 459.66 190.831 477.852 190.831 477.852C190.831 477.852 188.401 486.819 183.925 492.841C179.448 498.862 174.46 500.527 173.053 499.887C171.518 499.246 174.332 497.196 176.634 493.225C178.936 489.254 180.215 486.819 177.53 486.051C174.716 485.282 170.623 486.051 166.274 492.713C161.925 499.374 160.39 501.68 159.111 500.527C157.832 499.374 159.111 496.684 159.111 496.684C159.111 496.684 156.425 500.912 155.146 499.759C153.867 498.734 154.251 496.043 155.914 492.584C157.449 489.125 163.46 481.054 163.46 481.054C163.46 481.054 158.216 483.745 156.17 486.691C154.123 489.638 150.158 498.99 147.728 497.453C145.81 496.3 146.833 493.353 146.833 493.353C146.833 493.353 144.147 492.841 145.042 489.51C145.937 486.179 148.751 480.286 152.46 474.777C156.17 469.268 179.832 460.301 179.832 460.301L223.958 399.064L256.574 308.105L309.142 329.756Z" fill="#FFA8A7"/>
<path d="M256.446 308.234L252.097 320.276C258.109 328.987 265.271 330.14 271.666 335.649C284.585 346.667 285.096 364.346 293.154 369.983C301.34 349.741 309.142 329.884 309.142 329.884L256.446 308.234Z" fill="#FF9191"/>
<path d="M226.133 398.167C230.354 393.939 243.272 394.836 248.772 399.064" stroke="#873636" stroke-width="0.6036" stroke-miterlimit="10"/>
<path d="M191.471 472.215C191.471 472.215 191.343 475.161 186.355 475.802" stroke="#FF9191" stroke-width="0.7828" stroke-miterlimit="10"/>
<path d="M146.577 493.609C146.577 493.609 149.775 486.435 151.693 483.873C153.612 481.311 158.472 477.595 158.472 477.595" stroke="#FF9191" stroke-width="0.8044" stroke-miterlimit="10"/>
<path d="M158.728 497.325C158.728 497.325 162.053 490.15 163.972 487.844C165.89 485.538 169.088 482.079 169.088 482.079" stroke="#FF9191" stroke-width="0.8044" stroke-miterlimit="10"/>
<path d="M601.017 235.851C601.017 235.851 617.772 220.478 619.179 219.453C620.586 218.428 628.004 213.816 630.179 209.845C632.353 205.873 633.632 200.749 631.969 201.133C630.307 201.646 627.748 208.179 624.935 209.717C622.121 211.254 618.156 213.048 618.156 213.048C618.156 213.048 623.656 207.795 625.83 203.952C628.004 200.108 630.69 191.909 628.388 191.653C626.086 191.397 622.377 202.158 620.33 204.08C618.412 206.001 612.528 210.87 612.272 209.973C612.016 209.076 616.493 204.977 618.028 202.543C619.563 200.108 623.656 190.884 620.842 191.141C618.028 191.269 615.598 199.34 613.807 201.518C612.016 203.695 606.644 206.642 606.133 206.258C605.621 205.745 607.796 203.439 608.435 201.902C609.075 200.365 612.784 193.062 610.993 193.062C609.33 193.062 606.644 197.802 605.365 199.596C603.958 201.261 598.842 205.105 593.982 209.717C587.203 215.994 586.947 221.247 584.389 230.471C581.831 239.694 552.158 303.109 552.158 303.109L511.868 261.858L472.09 303.109C472.09 303.109 490.125 330.012 509.438 358.837C528.751 387.662 552.03 394.196 567.25 387.278C587.715 378.054 590.401 344.104 594.749 307.849C599.738 267.11 601.017 235.851 601.017 235.851Z" fill="#FFA8A7"/>
<path d="M583.11 230.471C583.11 230.471 590.529 235.723 602.296 237.004L601.912 244.819C601.912 244.819 591.424 245.972 580.296 237.645L583.11 230.471Z" fill="#4862E0"/>
<path d="M599.61 239.182C599.61 242.513 596.924 245.203 593.598 245.203C590.273 245.203 587.587 242.513 587.587 239.182C587.587 235.851 590.273 233.161 593.598 233.161C596.924 233.289 599.61 235.979 599.61 239.182Z" fill="#262F57"/>
<path d="M593.726 243.153C595.916 243.153 597.691 241.375 597.691 239.182C597.691 236.989 595.916 235.211 593.726 235.211C591.536 235.211 589.761 236.989 589.761 239.182C589.761 241.375 591.536 243.153 593.726 243.153Z" fill="#E6EAFF"/>
<path d="M592.447 236.62L593.726 239.182L595.133 238.157" stroke="#421B1B" stroke-width="0.6036" stroke-miterlimit="10"/>
<path d="M472.346 302.981C472.346 302.981 477.974 311.308 486.288 323.735C501.764 319.379 529.647 291.964 545.123 295.551L512.124 261.729L472.346 302.981Z" fill="#FF9191"/>
<path d="M552.413 302.981L540.007 328.859" stroke="#873636" stroke-width="0.6036" stroke-miterlimit="10"/>
<path d="M565.843 382.025C565.843 383.819 562.902 385.228 559.192 385.228C555.483 385.228 552.542 383.819 552.542 382.025C552.542 380.232 555.483 378.822 559.192 378.822C562.902 378.822 565.843 380.232 565.843 382.025Z" fill="#FF9191"/>
<path d="M514.682 249.559C510.078 246.484 511.612 244.05 506.752 236.876C501.892 229.702 491.148 229.446 487.822 223.168C484.497 216.891 479.125 208.948 459.94 201.261C440.754 193.575 419.778 188.066 419.778 188.066L412.743 174.871C412.743 174.871 404.558 187.169 389.081 189.347L382.43 209.717L377.442 189.091C362.222 186.529 356.082 176.28 356.082 176.28L349.431 187.297C349.431 187.297 306.712 204.592 294.049 218.044C287.782 224.706 280.875 236.492 277.933 243.922C274.992 251.353 270.259 253.787 263.736 261.217C257.213 268.647 257.469 279.921 249.539 285.43C241.609 290.939 236.876 304.134 236.876 304.134L310.932 337.315L321.037 310.155C321.037 310.155 334.722 358.709 334.467 371.904C334.211 385.1 328.327 418.024 328.327 418.024H451.754C451.754 418.024 447.661 386.765 446.254 372.673C444.847 358.581 459.172 297.216 459.172 297.216L477.207 318.354L533.228 264.548C530.414 257.758 519.159 252.634 514.682 249.559Z" fill="#FF7070"/>
<path d="M375.907 191.653C375.907 191.653 370.663 199.084 368.233 216.25L351.989 190.5" stroke="#CF216D" stroke-width="0.7828" stroke-miterlimit="10"/>
<path d="M391 191.653C391 191.653 396.244 199.084 398.674 216.25L414.918 190.5" stroke="#CF216D" stroke-width="0.7828" stroke-miterlimit="10"/>
<path d="M509.694 287.608C483.218 288.761 464.8 277.743 464.8 277.743L459.428 297.344L477.463 318.482L509.694 287.608Z" fill="#FF5A59"/>
<path d="M391.128 318.482C352.501 313.486 328.583 290.811 328.583 290.811L318.351 318.482C318.351 318.482 332.42 359.478 332.165 372.673C331.909 385.868 328.583 418.152 328.583 418.152H452.01C452.01 418.152 447.917 386.893 446.51 372.801C445.743 365.627 449.068 346.282 452.649 329.116C444.464 327.194 421.697 322.454 391.128 318.482Z" fill="#FF5A59"/>
<path d="M319.246 315.664L335.746 271.722" stroke="#CF216D" stroke-width="0.7828" stroke-miterlimit="10"/>
<path d="M327.304 286.839C327.304 286.839 326.665 257.63 320.269 256.093C313.874 254.555 321.804 273.772 321.804 273.772" stroke="#CF216D" stroke-width="0.7828" stroke-miterlimit="10"/>
<path d="M325.641 288.248L312.211 275.822" stroke="#CF216D" stroke-width="0.7828" stroke-miterlimit="10"/>
<path d="M459.939 295.935L469.66 259.808" stroke="#CF216D" stroke-width="0.7828" stroke-miterlimit="10"/>
<path d="M466.207 282.483C472.986 267.623 486.544 263.907 485.648 257.758C484.753 251.609 475.416 260.448 473.114 267.623" stroke="#CF216D" stroke-width="0.7828" stroke-miterlimit="10"/>
<path d="M382.559 213.176C382.559 213.176 380.768 224.706 382.559 243.153C384.349 261.601 385.5 269.416 383.454 282.483C381.535 295.551 381.024 316.433 383.198 333.087C385.372 349.613 387.419 361.528 385.372 372.417C383.326 383.306 384.477 397.27 384.477 397.27" stroke="#78133F" stroke-width="0.7828" stroke-miterlimit="10"/>
<path d="M391 224.834C391 226.371 389.721 227.652 388.186 227.652C386.652 227.652 385.373 226.371 385.373 224.834C385.373 223.296 386.652 222.015 388.186 222.015C389.721 222.015 391 223.296 391 224.834Z" fill="white"/>
<path d="M391.767 271.21C391.767 272.747 390.488 274.028 388.954 274.028C387.419 274.028 386.14 272.747 386.14 271.21C386.14 269.672 387.419 268.391 388.954 268.391C390.616 268.391 391.767 269.672 391.767 271.21Z" fill="white"/>
<path d="M390.233 311.693C390.233 313.23 388.954 314.511 387.419 314.511C385.884 314.511 384.605 313.23 384.605 311.693C384.605 310.155 385.884 308.874 387.419 308.874C388.954 308.874 390.233 310.155 390.233 311.693Z" fill="white"/>
<path d="M448.172 263.267H408.395V268.135H448.172V263.267Z" fill="#78133F"/>
<path d="M448.172 270.185C448.172 270.185 448.172 281.971 448.172 288.376C448.172 299.778 437.812 306.312 428.347 306.312C418.883 306.312 408.522 302.981 408.522 290.298C408.522 287.095 408.522 276.718 408.522 276.718" stroke="#CF216D" stroke-width="0.7828" stroke-miterlimit="10"/>
<path d="M521.333 256.093L473.114 308.874" stroke="#78133F" stroke-width="0.7828" stroke-miterlimit="10"/>
<path d="M244.807 296.576L313.363 324.888" stroke="#78133F" stroke-width="0.7828" stroke-miterlimit="10"/>
<path opacity="0.3" d="M488.974 472.087H285.224L303.514 436.856H466.207L488.974 472.087Z" fill="black"/>
<path d="M488.974 469.653H285.224L303.514 434.55H466.207L488.974 469.653Z" fill="#6A80F2"/>
<path d="M303.77 460.172H314.898" stroke="#9EAEFF" stroke-width="1.3436" stroke-miterlimit="10"/>
<path d="M319.246 460.172H330.246" stroke="#9EAEFF" stroke-width="1.3436" stroke-miterlimit="10"/>
<path d="M334.595 460.172H345.722" stroke="#9EAEFF" stroke-width="1.3436" stroke-miterlimit="10"/>
<path d="M350.071 460.172H361.198" stroke="#9EAEFF" stroke-width="1.3436" stroke-miterlimit="10"/>
<path d="M365.547 460.172H376.547" stroke="#9EAEFF" stroke-width="1.3436" stroke-miterlimit="10"/>
<path d="M380.896 460.172H392.023" stroke="#9EAEFF" stroke-width="1.3436" stroke-miterlimit="10"/>
<path d="M396.372 460.172H407.5" stroke="#9EAEFF" stroke-width="1.3436" stroke-miterlimit="10"/>
<path d="M411.848 460.172H422.848" stroke="#9EAEFF" stroke-width="1.3436" stroke-miterlimit="10"/>
<path d="M427.197 460.172H438.324" stroke="#9EAEFF" stroke-width="1.3436" stroke-miterlimit="10"/>
<path d="M442.673 460.172H453.8" stroke="#9EAEFF" stroke-width="1.3436" stroke-miterlimit="10"/>
<path d="M458.149 460.172H469.149" stroke="#9EAEFF" stroke-width="1.3436" stroke-miterlimit="10"/>
<path d="M306.584 453.767H317.2" stroke="#9EAEFF" stroke-width="1.3436" stroke-miterlimit="10"/>
<path d="M321.421 453.767H332.037" stroke="#9EAEFF" stroke-width="1.3436" stroke-miterlimit="10"/>
<path d="M336.257 453.767H346.873" stroke="#9EAEFF" stroke-width="1.3436" stroke-miterlimit="10"/>
<path d="M351.094 453.767H361.71" stroke="#9EAEFF" stroke-width="1.3436" stroke-miterlimit="10"/>
<path d="M365.931 453.767H376.547" stroke="#9EAEFF" stroke-width="1.3436" stroke-miterlimit="10"/>
<path d="M380.768 453.767H391.384" stroke="#9EAEFF" stroke-width="1.3436" stroke-miterlimit="10"/>
<path d="M395.604 453.767H406.22" stroke="#9EAEFF" stroke-width="1.3436" stroke-miterlimit="10"/>
<path d="M410.441 453.767H421.057" stroke="#9EAEFF" stroke-width="1.3436" stroke-miterlimit="10"/>
<path d="M425.278 453.767H435.894" stroke="#9EAEFF" stroke-width="1.3436" stroke-miterlimit="10"/>
<path d="M440.115 453.767H450.731" stroke="#9EAEFF" stroke-width="1.3436" stroke-miterlimit="10"/>
<path d="M454.952 453.767H465.568" stroke="#9EAEFF" stroke-width="1.3436" stroke-miterlimit="10"/>
<path d="M309.142 447.874H319.374" stroke="#9EAEFF" stroke-width="1.3436" stroke-miterlimit="10"/>
<path d="M323.467 447.874H333.7" stroke="#9EAEFF" stroke-width="1.3436" stroke-miterlimit="10"/>
<path d="M337.792 447.874H348.025" stroke="#9EAEFF" stroke-width="1.3436" stroke-miterlimit="10"/>
<path d="M351.99 447.874H362.35" stroke="#9EAEFF" stroke-width="1.3436" stroke-miterlimit="10"/>
<path d="M366.315 447.874H376.547" stroke="#9EAEFF" stroke-width="1.3436" stroke-miterlimit="10"/>
<path d="M380.64 447.874H390.872" stroke="#9EAEFF" stroke-width="1.3436" stroke-miterlimit="10"/>
<path d="M394.837 447.874H405.198" stroke="#9EAEFF" stroke-width="1.3436" stroke-miterlimit="10"/>
<path d="M409.163 447.874H419.395" stroke="#9EAEFF" stroke-width="1.3436" stroke-miterlimit="10"/>
<path d="M423.487 447.874H433.72" stroke="#9EAEFF" stroke-width="1.3436" stroke-miterlimit="10"/>
<path d="M437.685 447.874H448.045" stroke="#9EAEFF" stroke-width="1.3436" stroke-miterlimit="10"/>
<path d="M452.01 447.874H462.242" stroke="#9EAEFF" stroke-width="1.3436" stroke-miterlimit="10"/>
<path d="M311.572 442.493H321.421" stroke="#9EAEFF" stroke-width="1.3436" stroke-miterlimit="10"/>
<path d="M325.386 442.493H335.234" stroke="#9EAEFF" stroke-width="1.3436" stroke-miterlimit="10"/>
<path d="M339.071 442.493H349.048" stroke="#9EAEFF" stroke-width="1.3436" stroke-miterlimit="10"/>
<path d="M352.885 442.493H362.733" stroke="#9EAEFF" stroke-width="1.3436" stroke-miterlimit="10"/>
<path d="M366.699 442.493H376.547" stroke="#9EAEFF" stroke-width="1.3436" stroke-miterlimit="10"/>
<path d="M380.384 442.493H390.361" stroke="#9EAEFF" stroke-width="1.3436" stroke-miterlimit="10"/>
<path d="M394.198 442.493H404.046" stroke="#9EAEFF" stroke-width="1.3436" stroke-miterlimit="10"/>
<path d="M408.011 442.493H417.86" stroke="#9EAEFF" stroke-width="1.3436" stroke-miterlimit="10"/>
<path d="M421.697 442.493H431.673" stroke="#9EAEFF" stroke-width="1.3436" stroke-miterlimit="10"/>
<path d="M435.51 442.493H445.359" stroke="#9EAEFF" stroke-width="1.3436" stroke-miterlimit="10"/>
<path d="M449.324 442.493H459.172" stroke="#9EAEFF" stroke-width="1.3436" stroke-miterlimit="10"/>
<path d="M386.396 509.751C411.402 509.751 431.674 503.04 431.674 494.762C431.674 486.484 411.402 479.773 386.396 479.773C361.39 479.773 341.118 486.484 341.118 494.762C341.118 503.04 361.39 509.751 386.396 509.751Z" fill="#3C6D73"/>
<path d="M367.466 496.684H405.325L410.058 481.951C403.151 480.542 395.093 479.773 386.395 479.773C377.698 479.773 369.64 480.542 362.733 481.951L367.466 496.684Z" fill="#262F57"/>
<path d="M470.812 456.585H301.852L295.201 329.756H477.463L470.812 456.585Z" fill="#3C6D73"/>
<path d="M408.651 456.585L400.977 437.497H371.687L364.396 456.585H408.651Z" fill="#262F57"/>
<path d="M398.856 404.876C405.331 397.96 404.983 387.096 398.079 380.61C391.175 374.124 380.329 374.473 373.853 381.388C367.378 388.303 367.725 399.167 374.63 405.653C381.534 412.139 392.38 411.791 398.856 404.876Z" stroke="white" stroke-width="1.3846" stroke-miterlimit="10"/>
<path d="M405.197 500.527H367.466L371.687 436.472H400.976L405.197 500.527Z" fill="#3C6D73"/>
<path d="M300.317 335.521H472.347" stroke="white" stroke-width="1.3846" stroke-miterlimit="10"/>
<path d="M371.687 436.472H390.361" stroke="white" stroke-width="1.3846" stroke-miterlimit="10"/>
<path d="M369.257 497.837H394.198" stroke="white" stroke-width="1.3846" stroke-miterlimit="10"/>
<path d="M570.96 61.493H450.091V227.268H570.96V61.493Z" fill="#6A80F2"/>
<path d="M574.669 57.6497H453.8V223.424H574.669V57.6497Z" fill="white"/>
<path d="M574.669 36.5115H453.8V52.6534H574.669V36.5115Z" fill="#FFC700"/>
<path d="M514.171 157.448C491.021 157.448 472.219 138.615 472.219 115.427C472.219 92.2395 491.148 73.4072 514.171 73.4072C537.321 73.4072 556.123 92.2395 556.123 115.427C556.123 138.615 537.321 157.448 514.171 157.448ZM514.171 96.4671C503.811 96.4671 495.241 104.922 495.241 115.427C495.241 125.932 503.683 134.388 514.171 134.388C524.659 134.388 533.101 125.932 533.101 115.427C533.101 104.922 524.659 96.4671 514.171 96.4671Z" fill="#9EAEFF"/>
<path d="M554.716 126.189C555.612 122.73 556.123 119.143 556.123 115.427C556.123 92.2395 537.321 73.4072 514.171 73.4072V96.4671C524.531 96.4671 533.101 104.922 533.101 115.427C533.101 117.093 532.845 118.758 532.461 120.296L554.716 126.189Z" fill="#F24693"/>
<path d="M495.369 115.427C495.369 113.378 495.753 111.456 496.265 109.662L474.393 102.488C473.114 106.588 472.347 110.944 472.347 115.427C472.347 118.374 472.603 121.321 473.242 124.139L495.753 119.399C495.497 118.118 495.369 116.709 495.369 115.427Z" fill="#A7B964"/>
<path d="M532.461 120.168C531.566 123.498 529.903 126.445 527.601 128.751L543.844 145.021C549.088 139.768 552.925 133.235 554.844 125.933L532.461 120.168Z" fill="#4862E0"/>
<path d="M514.171 157.448C525.81 157.448 536.298 152.708 543.844 145.021L527.601 128.751C524.147 132.21 519.415 134.388 514.171 134.388C510.718 134.388 507.52 133.491 504.706 131.826L493.195 151.811C499.462 155.398 506.625 157.448 514.171 157.448Z" fill="#262F57"/>
<path d="M479.637 177.689C479.637 179.483 478.23 180.892 476.439 180.892C474.649 180.892 473.242 179.483 473.242 177.689C473.242 175.896 474.649 174.486 476.439 174.486C478.23 174.486 479.637 175.896 479.637 177.689Z" fill="#262F57"/>
<path d="M483.09 177.689H555.228" stroke="#9EAEFF" stroke-miterlimit="10"/>
<path d="M479.637 191.781C479.637 193.575 478.23 194.984 476.439 194.984C474.649 194.984 473.242 193.575 473.242 191.781C473.242 189.988 474.649 188.578 476.439 188.578C478.23 188.45 479.637 189.988 479.637 191.781Z" fill="#F26AF2"/>
<path d="M483.09 191.781H555.228" stroke="#9EAEFF" stroke-miterlimit="10"/>
<path d="M479.637 205.745C479.637 207.539 478.23 208.948 476.439 208.948C474.649 208.948 473.242 207.539 473.242 205.745C473.242 203.952 474.649 202.543 476.439 202.543C478.23 202.543 479.637 203.952 479.637 205.745Z" fill="#4862E0"/>
<path d="M483.09 205.745H555.228" stroke="#9EAEFF" stroke-miterlimit="10"/>
<path d="M568.785 40.611L560.216 48.5538" stroke="#4862E0" stroke-miterlimit="10" stroke-linecap="round" stroke-linejoin="round"/>
<path d="M560.216 40.611L568.785 48.5538" stroke="#4862E0" stroke-miterlimit="10" stroke-linecap="round" stroke-linejoin="round"/>
<path d="M546.125 48.6532H554.055V40.7104H546.125V48.6532Z" stroke="#4862E0" stroke-miterlimit="10" stroke-linecap="round" stroke-linejoin="round"/>
<path d="M531.821 44.5824C531.821 46.7603 533.612 48.5538 535.786 48.5538C537.961 48.5538 539.751 46.7603 539.751 44.5824C539.751 42.4045 537.961 40.611 535.786 40.611C533.612 40.611 531.821 42.4045 531.821 44.5824Z" stroke="#4862E0" stroke-miterlimit="10" stroke-linecap="round" stroke-linejoin="round"/>
<path d="M512.764 309.387C493.962 299.01 470.3 305.928 459.94 324.76C453.417 336.674 453.801 350.638 459.684 361.784L438.58 381.513L468.893 373.186C470.812 374.851 472.986 376.388 475.288 377.669C494.09 388.046 517.752 381.128 528.112 362.296C538.472 343.464 531.566 319.764 512.764 309.387Z" fill="white"/>
<path d="M500.485 333.984L503.171 336.418C504.066 337.186 504.322 338.339 504.066 339.492C503.043 342.439 500.997 345.642 497.927 348.332C494.857 351.022 491.532 352.688 488.462 353.456C487.311 353.713 486.16 353.2 485.52 352.304L483.346 349.357L473.37 358.325C479.381 364.986 492.555 363.065 502.787 353.969C513.02 344.873 516.473 331.934 510.589 325.272L500.485 333.984Z" fill="#3C6D73"/>
<path d="M339.071 146.558L318.607 141.306C318.351 138.872 317.712 136.438 316.944 134.003C310.293 114.787 289.445 104.538 270.132 111.072C250.946 117.733 240.714 138.615 247.237 157.96C253.888 177.177 274.736 187.425 294.05 180.892C306.712 176.536 315.409 166.031 318.095 153.861L339.071 146.558Z" fill="#FFC700"/>
<path d="M262.458 133.875H300.828" stroke="#262F57" stroke-width="0.7828" stroke-miterlimit="10"/>
<path d="M262.458 141.306H300.828" stroke="#262F57" stroke-width="0.7828" stroke-miterlimit="10"/>
<path d="M262.458 148.864H300.828" stroke="#262F57" stroke-width="0.7828" stroke-miterlimit="10"/>
<path d="M262.458 156.423H300.828" stroke="#262F57" stroke-width="0.7828" stroke-miterlimit="10"/>
<path d="M212.191 314.895H72.6491C69.3237 314.895 66.6377 312.205 66.6377 308.874C66.6377 305.543 69.3237 302.853 72.6491 302.853H212.191C215.517 302.853 218.203 305.543 218.203 308.874C218.203 312.205 215.517 314.895 212.191 314.895Z" fill="#262F57"/>
<path d="M174.588 302.853H72.6491C69.3237 302.853 66.6377 305.543 66.6377 308.874C66.6377 312.205 69.3237 314.895 72.6491 314.895H174.588V302.853Z" fill="white"/>
<path d="M178.169 318.61C183.538 318.61 187.89 314.251 187.89 308.874C187.89 303.497 183.538 299.138 178.169 299.138C172.801 299.138 168.449 303.497 168.449 308.874C168.449 314.251 172.801 318.61 178.169 318.61Z" fill="#FFC700"/>
</svg>
